<svg width="22" height="25" viewBox="0 0 22 25" fill="none" xmlns="http://www.w3.org/2000/svg">
<path fill-rule="evenodd" clip-rule="evenodd" d="M2.22261 16.379C3.75597 14.1651 6.47162 12.5 10.9998 12.5C15.528 12.5 18.2437 14.1651 19.777 16.379C21.259 18.5187 21.495 20.9711 21.4997 22.3281C21.5045 23.6927 20.3999 24.5834 19.2675 24.5834H2.73218C1.59972 24.5834 0.495154 23.6927 0.499893 22.3281C0.504606 20.9711 0.740644 18.5187 2.22261 16.379Z" fill="#F2F2F2"/>
<path fill-rule="evenodd" clip-rule="evenodd" d="M10.9999 10.0834C13.5773 10.0834 15.6666 7.9194 15.6666 5.25002C15.6666 2.58064 13.5773 0.416687 10.9999 0.416687C8.42261 0.416687 6.33327 2.58064 6.33327 5.25002C6.33327 7.9194 8.42261 10.0834 10.9999 10.0834Z" fill="#F2F2F2"/>
</svg>
